# xmcd CD database file
#
# Track frame offsets:
#	182
#	38055
#	68365
#	99320
#	105697
#	129237
#	149270
#	169050
#	194810
#
# Disc length: 2719 seconds
#
# Revision: 0
# Processed by: cddbd v1.5.2PL0 Copyright (c) Steve Scherf et al.
# Submitted via: CDex 1.51
#
DISCID=750a9d09
DTITLE=Hamiet Bluiett - Dangerously Suite
DYEAR=1981
DGENRE=Jazz
TTITLE0=Between the Raindrops
TTITLE1=Ballad of Eddie Jefferson
TTITLE2=Full, Deep and Mellow
TTITLE3=Prayer
TTITLE4=Blues for Atlanta Georgia
TTITLE5=Mighty Denn
TTITLE6=Doll Baby
TTITLE7=Oasis
TTITLE8=Rain Shout
EXTD=YEAR: 1981
EXTT0=
EXTT1=
EXTT2=
EXTT3=
EXTT4=
EXTT5=
EXTT6=
EXTT7=
EXTT8=
PLAYORDER=
